<svg width="157" height="295" viewBox="0 0 157 295" fill="none" xmlns="http://www.w3.org/2000/svg">
    <path d="M88.4827 56.2686C101.877 56.2686 112.734 45.4107 112.734 32.0169C112.734 18.623 101.877 7.76514 88.4827 7.76514C75.0888 7.76514 64.231 18.623 64.231 32.0169C64.231 45.4107 75.0888 56.2686 88.4827 56.2686Z" fill="#1C1C1C"/>
    <path d="M148.941 97.3997C143.715 86.0651 137.054 75.2942 127.115 67.5063C126.044 66.6695 124.934 66.1116 123.807 65.6846C123.733 65.5935 123.687 65.491 123.613 65.4056C106.313 56.7183 67.7889 60.6635 56.0444 63.0772L56.0274 63.4302C38.3225 51.6118 28.5648 30.4171 25.1206 9.33064C22.445 -7.02503 -2.35895 -0.0626278 0.293937 16.1735C5.57694 48.4977 24.5457 78.2602 54.5472 91.6271L54.3593 95.1852C54.3821 112.975 54.4789 179.742 54.4789 180.687L54.9514 280.859C54.9514 288.527 61.3388 294.738 69.2121 294.738C77.0911 294.738 83.4785 288.521 83.4785 280.859V183.795C83.4785 183.795 83.3475 179.002 88.3573 179.059C93.3727 179.104 93.8225 184.028 93.8225 184.028V281.121C93.8225 288.783 100.216 295 108.089 295C115.974 295 121.575 288.778 121.575 281.121V187.934L121.53 173.155C132.671 166.005 141.335 155.701 147.552 144.042C150.991 137.637 156.911 128.705 156.911 121.082C156.911 113.311 152.078 104.18 148.941 97.3997ZM132.676 122.397C131.151 125.802 129.597 129.212 127.741 132.451C125.805 135.827 123.727 139.049 121.456 142.1L121.336 94.9005C126.87 102.597 130.707 111.598 133.354 120.649C133.195 121.145 132.984 121.72 132.676 122.397ZM133.633 119.665C133.621 118.475 133.872 118.492 133.633 119.665V119.665Z" fill="#1C1C1C"/>
</svg>